<svg xmlns="http://www.w3.org/2000/svg" width="12.753" height="25.245" viewBox="0 0 12.753 25.245"><defs><style>.a{fill:#fff;}</style></defs><path class="a" d="M77.11,13.446h2.767V24.838a.407.407,0,0,0,.407.407h4.692a.407.407,0,0,0,.407-.407V13.5h3.181a.407.407,0,0,0,.4-.361l.483-4.194a.407.407,0,0,0-.4-.454H85.384V5.862c0-.793.427-1.194,1.268-1.194h2.4a.407.407,0,0,0,.407-.407V.41A.407.407,0,0,0,89.048,0h-3.3c-.023,0-.075,0-.151,0a6.327,6.327,0,0,0-4.137,1.56,4.339,4.339,0,0,0-1.443,3.857V8.491H77.11A.407.407,0,0,0,76.7,8.9v4.141A.407.407,0,0,0,77.11,13.446Z" transform="translate(-76.703)"/></svg>