<svg xmlns="http://www.w3.org/2000/svg" width="20.34" height="19.484" viewBox="0 0 20.34 19.484"><defs><style>.a{fill:none;stroke:#006ceb;stroke-linecap:round;stroke-linejoin:round;stroke-width:1.5px;}</style></defs><g transform="translate(0.75 0.75)"><path class="a" d="M13.713,30.856A.856.856,0,1,1,12.856,30,.856.856,0,0,1,13.713,30.856Z" transform="translate(-6.005 -13.729)"/><path class="a" d="M30.213,30.856A.856.856,0,1,1,29.356,30,.856.856,0,0,1,30.213,30.856Z" transform="translate(-13.085 -13.729)"/><path class="a" d="M1.5,1.5H4.925l2.3,11.467a1.713,1.713,0,0,0,1.713,1.379h8.324a1.713,1.713,0,0,0,1.713-1.379l1.37-7.185H5.782" transform="translate(-1.5 -1.5)"/></g></svg>