<svg xmlns="http://www.w3.org/2000/svg" width="25.244" height="25.245" viewBox="0 0 25.244 25.245"><defs><style>.a{fill:#fff;}</style></defs><path class="a" d="M12.871,25.247H12.62c-1.979,0-3.807-.045-5.585-.154a7.466,7.466,0,0,1-4.3-1.629A6.908,6.908,0,0,1,.41,19.716,16.606,16.606,0,0,1,.029,15.75C.016,14.829,0,13.737,0,12.626S.016,10.419.029,9.5A16.608,16.608,0,0,1,.41,5.532,6.908,6.908,0,0,1,2.731,1.784,7.466,7.466,0,0,1,7.035.155C8.813.047,10.642,0,12.625,0s3.807.046,5.585.154a7.466,7.466,0,0,1,4.3,1.629,6.907,6.907,0,0,1,2.321,3.748A16.607,16.607,0,0,1,25.216,9.5c.013.922.026,2.014.029,3.124v0c0,1.111-.016,2.2-.029,3.124a16.6,16.6,0,0,1-.381,3.965,6.907,6.907,0,0,1-2.321,3.748,7.466,7.466,0,0,1-4.3,1.629c-1.7.1-3.452.154-5.339.154Zm-.251-1.973c1.947,0,3.734-.044,5.47-.15a5.433,5.433,0,0,0,3.177-1.189,4.979,4.979,0,0,0,1.657-2.707,15.108,15.108,0,0,0,.32-3.5c.013-.915.026-2,.028-3.1s-.016-2.184-.028-3.1a15.111,15.111,0,0,0-.32-3.5,4.979,4.979,0,0,0-1.657-2.707A5.434,5.434,0,0,0,18.09,2.124c-1.736-.106-3.524-.154-5.466-.15s-3.734.044-5.47.15A5.434,5.434,0,0,0,3.977,3.313,4.979,4.979,0,0,0,2.321,6.019,15.11,15.11,0,0,0,2,9.524c-.013.916-.026,2-.028,3.1s.016,2.181.028,3.1a15.108,15.108,0,0,0,.32,3.5,4.979,4.979,0,0,0,1.657,2.707,5.434,5.434,0,0,0,3.177,1.189C8.891,23.229,10.679,23.279,12.62,23.274Zm-.047-4.487a6.163,6.163,0,1,1,6.163-6.163A6.17,6.17,0,0,1,12.573,18.787Zm0-10.354a4.191,4.191,0,1,0,4.191,4.191A4.2,4.2,0,0,0,12.573,8.433Zm6.854-3.945a1.479,1.479,0,1,0,1.479,1.479A1.479,1.479,0,0,0,19.427,4.488Zm0,0" transform="translate(0 -0.001)"/></svg>