<svg xmlns="http://www.w3.org/2000/svg" width="25.246" height="25.246" viewBox="0 0 25.246 25.246"><defs><style>.a{fill:#fff;}</style></defs><path class="a" d="M24.8,24.853h.006V15.593c0-4.529-.975-8.019-6.27-8.019A5.5,5.5,0,0,0,13.583,10.3H13.51V8H8.489V24.851h5.228V16.506c0-2.2.417-4.322,3.138-4.322,2.681,0,2.721,2.508,2.721,4.463v8.206Z" transform="translate(0.441 0.393)"/><path class="a" d="M.4,7.977H5.63V24.832H.4Z" transform="translate(0.021 0.414)"/><path class="a" d="M3.032,0A3.046,3.046,0,1,0,6.063,3.032,3.033,3.033,0,0,0,3.032,0Z"/></svg>