<svg xmlns="http://www.w3.org/2000/svg" width="239.827" height="300" viewBox="0 0 239.827 300">
  <g id="Group_1" data-name="Group 1" transform="translate(19942.512 10280.056)">
    <path id="Path_20475" data-name="Path 20475" d="M730.711,483.159a114.218,114.218,0,0,0-3.034-25.111,116.56,116.56,0,0,0-11.984-31.211l-2.191-3.748a108.047,108.047,0,0,0-12.7-17.274v2.532q-.005,38.872-.012,77.743a86.351,86.351,0,0,1-3.991,25.32,87.3,87.3,0,0,1-10.4,22.2,89.943,89.943,0,0,1-63.06,40.322,88.407,88.407,0,0,1-28.226-.458,87.5,87.5,0,0,1-24.24-8.061,89.637,89.637,0,0,1-34.4-30.049,89.876,89.876,0,0,1-9.139-83.962,87.437,87.437,0,0,1,13.891-23.445,89.51,89.51,0,0,1,39.763-28,88.069,88.069,0,0,1,40.893-4.337,81.976,81.976,0,0,1,18.857,4.449c.043.4.1.663.1.927-.006,28.579.089,57.158-.154,85.735a27.45,27.45,0,0,1-2.876,11.054c-4.138,8.756-11.171,14.124-20.7,16.371-11.608,2.738-25.23-2.8-31.456-12.963a32.868,32.868,0,0,1-4.9-15.663H551.1a2.81,2.81,0,0,0-.17.544c-.015.4-.022.8,0,1.2a60.117,60.117,0,0,0,44.547,55.473,59.217,59.217,0,0,0,51.154-9.857c14.986-11.53,23.683-26.784,23.968-45.671.527-34.9.154-69.813.184-104.721a2.1,2.1,0,0,0-1.245-2.16,120.512,120.512,0,0,0-71.61-14.669,118.318,118.318,0,0,0-63.466,26.862c-21.827,18.394-35.757,41.476-41.271,69.567a114.036,114.036,0,0,0-1.574,35.164c.418,3.653,4.163,21.062,5.167,24.325a114.211,114.211,0,0,0,17.388,34.117,120.081,120.081,0,0,0,34.742,31.786,118.755,118.755,0,0,0,28.07,12.42,122.973,122.973,0,0,0,26.068,4.6,111.648,111.648,0,0,0,38.141-3.759c33.8-13.2,57.312-31.759,55.9-29.394a8.586,8.586,0,0,0-.855,1.8,83.914,83.914,0,0,1-9.893,20.7,89.889,89.889,0,0,1-28.272,27.7,83.368,83.368,0,0,1-28.432,11.385,96.531,96.531,0,0,1-16.811,1.944,149.871,149.871,0,0,1-33.877-3.5,147.465,147.465,0,0,1-28.693-9.312c-4.8-2.139-9.456-4.584-14.409-7l-14.9,25.819a21.311,21.311,0,0,0,1.853,1.114c8.326,3.866,16.526,8.049,25.034,11.461a138.664,138.664,0,0,0,20.5,6.355c7.754,1.781,15.676,2.9,23.571,3.972a130.6,130.6,0,0,0,37.828-.352,117.127,117.127,0,0,0,27.667-7.978,120.1,120.1,0,0,0,68.827-78.054,115.747,115.747,0,0,0,4.471-30.9Q730.793,514.834,730.711,483.159Z" transform="translate(-20433.422 -10645.056)"/>
  </g>
</svg>
