<svg xmlns="http://www.w3.org/2000/svg" xmlns:xlink="http://www.w3.org/1999/xlink" width="180" height="68.613" viewBox="0 0 180 68.613">
  <defs>
    <linearGradient id="linear-gradient" x1="0.983" y1="0.5" x2="0" gradientUnits="objectBoundingBox">
      <stop offset="0" stop-color="#3a7eef"/>
      <stop offset="1" stop-color="#1941f9"/>
    </linearGradient>
    <linearGradient id="linear-gradient-2" x2="1" y2="0.826" gradientUnits="objectBoundingBox">
      <stop offset="0" stop-color="#0f2fff"/>
      <stop offset="1" stop-color="#3d83ef"/>
    </linearGradient>
  </defs>
  <g id="Group_1" data-name="Group 1" transform="translate(19391 9999.999)">
    <g id="Group_26" data-name="Group 26" transform="translate(-19317.594 -9986.679)">
      <path id="Union_1" data-name="Union 1" d="M3.319,19.853A5.358,5.358,0,0,1,.892,17.827,6.252,6.252,0,0,1,0,14.308H4.805a3.2,3.2,0,0,0,.3,1.311,1.851,1.851,0,0,0,.745.814,2.264,2.264,0,0,0,1.14.273,2.17,2.17,0,0,0,1.17-.3,1.855,1.855,0,0,0,.726-.882,3.822,3.822,0,0,0,.259-1.452V.274H13.9v13.8a6.265,6.265,0,0,1-.926,3.387,6.154,6.154,0,0,1-2.529,2.247,8.294,8.294,0,0,1-3.728.8A8.537,8.537,0,0,1,3.319,19.853ZM68.3,19.308a8.692,8.692,0,0,1-3.416-3.485,11.373,11.373,0,0,1-1.262-5.57,11.424,11.424,0,0,1,1.262-5.585A8.623,8.623,0,0,1,68.3,1.189a10.449,10.449,0,0,1,9.683,0,8.647,8.647,0,0,1,3.426,3.479,11.4,11.4,0,0,1,1.267,5.585,11.389,11.389,0,0,1-1.267,5.584,8.636,8.636,0,0,1-3.426,3.479,10.415,10.415,0,0,1-9.683-.009ZM70.675,4.923a4.343,4.343,0,0,0-1.583,2.037,8.693,8.693,0,0,0-.551,3.294,8.693,8.693,0,0,0,.551,3.294,4.322,4.322,0,0,0,8.1,0,8.709,8.709,0,0,0,.55-3.294,8.709,8.709,0,0,0-.55-3.294,4.478,4.478,0,0,0-6.516-2.037ZM46.343,19.737a6.179,6.179,0,0,1-2.894-2.281,6.925,6.925,0,0,1-1.062-3.869h4.62a3.03,3.03,0,0,0,.516,1.608,2.826,2.826,0,0,0,1.262.975,4.879,4.879,0,0,0,1.866.332,4.653,4.653,0,0,0,1.662-.264,2.414,2.414,0,0,0,1.058-.73,1.731,1.731,0,0,0,.38-1.073,1.5,1.5,0,0,0-.351-.969,2.732,2.732,0,0,0-1.048-.7,11.351,11.351,0,0,0-1.8-.551l-2.085-.487A9.057,9.057,0,0,1,44.384,9.8,4.555,4.555,0,0,1,42.9,6.2,5.363,5.363,0,0,1,43.9,2.954,6.613,6.613,0,0,1,46.674.78,9.961,9.961,0,0,1,50.719,0a9.586,9.586,0,0,1,4.03.785,6.232,6.232,0,0,1,2.656,2.2,5.865,5.865,0,0,1,.964,3.275H53.75a2.282,2.282,0,0,0-.863-1.671,3.456,3.456,0,0,0-2.178-.6,4.323,4.323,0,0,0-1.56.243,2.045,2.045,0,0,0-.935.668,1.641,1.641,0,0,0-.322.97,1.406,1.406,0,0,0,.18.79,1.86,1.86,0,0,0,.585.6,4.214,4.214,0,0,0,.931.453,9.726,9.726,0,0,0,1.228.341l1.716.39a12.2,12.2,0,0,1,2.616.857,7.163,7.163,0,0,1,1.91,1.277,4.971,4.971,0,0,1,1.175,1.706,5.721,5.721,0,0,1,.409,2.163,5.575,5.575,0,0,1-.955,3.246,5.936,5.936,0,0,1-2.714,2.076,11.289,11.289,0,0,1-4.263.721A11.639,11.639,0,0,1,46.343,19.737Zm54.776.5L93.176,8.714h-.127V20.233H88.224V.274h4.152l7.855,11.5h.166V.274h4.815v19.96Zm-67.618,0-1.316-4.19H25.293l-1.313,4.19H18.795L25.529.274h6.423l6.734,19.96Zm-2.466-7.855L28.813,5.3h-.155l-2.217,7.076Z" transform="translate(0 0)" stroke="rgba(0,0,0,0)" stroke-miterlimit="10" stroke-width="1" fill="url(#linear-gradient)"/>
    </g>
    <g id="Group_27" data-name="Group 27" transform="translate(-19317.52 -9955.891)" opacity="0.8">
      <path id="Path_20467" data-name="Path 20467" d="M873.851,593.664a4.072,4.072,0,0,0-.474-.994,3.154,3.154,0,0,0-.7-.753,2.953,2.953,0,0,0-.912-.477,3.626,3.626,0,0,0-1.117-.164,3.329,3.329,0,0,0-1.813.515,3.557,3.557,0,0,0-1.3,1.517,6.479,6.479,0,0,0,.006,4.918,3.549,3.549,0,0,0,1.32,1.517,3.487,3.487,0,0,0,1.873.515,3.415,3.415,0,0,0,1.7-.413,2.911,2.911,0,0,0,1.15-1.172,3.68,3.68,0,0,0,.414-1.788l.416.088h-3.374v-1.2h4.272v1.2a4.753,4.753,0,0,1-.589,2.41,4.091,4.091,0,0,1-1.621,1.586,5.252,5.252,0,0,1-4.984-.14,4.7,4.7,0,0,1-1.753-1.994,6.959,6.959,0,0,1-.627-3.067,7.487,7.487,0,0,1,.359-2.4,5.276,5.276,0,0,1,1.016-1.816,4.46,4.46,0,0,1,1.556-1.15,4.806,4.806,0,0,1,1.977-.4,5.043,5.043,0,0,1,1.656.266,4.554,4.554,0,0,1,1.375.75,4.357,4.357,0,0,1,1.011,1.156,4.435,4.435,0,0,1,.558,1.487Z" transform="translate(-865.746 -590.006)" fill="#7e7e7e"/>
      <path id="Path_20468" data-name="Path 20468" d="M949.826,595.767a6.833,6.833,0,0,1-.641,3.067,4.811,4.811,0,0,1-1.758,1.994,5,5,0,0,1-5.1,0,4.809,4.809,0,0,1-1.758-1.994,7.659,7.659,0,0,1,0-6.134,4.81,4.81,0,0,1,1.758-1.994,5,5,0,0,1,5.1,0,4.812,4.812,0,0,1,1.758,1.994A6.834,6.834,0,0,1,949.826,595.767Zm-1.314,0a5.619,5.619,0,0,0-.485-2.459,3.556,3.556,0,0,0-1.309-1.517,3.556,3.556,0,0,0-3.686,0,3.554,3.554,0,0,0-1.309,1.517,6.477,6.477,0,0,0,0,4.918,3.552,3.552,0,0,0,1.309,1.517,3.556,3.556,0,0,0,3.686,0,3.554,3.554,0,0,0,1.309-1.517A5.619,5.619,0,0,0,948.512,595.767Z" transform="translate(-925.382 -590.006)" fill="#7e7e7e"/>
      <path id="Path_20469" data-name="Path 20469" d="M1017.79,602V590.788h3.921a4.114,4.114,0,0,1,1.933.4,2.68,2.68,0,0,1,1.134,1.079,3.054,3.054,0,0,1,.373,1.5,2.5,2.5,0,0,1-.255,1.194,2.04,2.04,0,0,1-.668.745,3.087,3.087,0,0,1-.9.405v.109a2.192,2.192,0,0,1,1.035.362,2.625,2.625,0,0,1,.871.942,2.982,2.982,0,0,1,.351,1.5,3.013,3.013,0,0,1-.384,1.517,2.647,2.647,0,0,1-1.211,1.068,5.025,5.025,0,0,1-2.152.394Zm1.358-6.287h2.519a2.5,2.5,0,0,0,1.109-.241,1.957,1.957,0,0,0,.788-.679,1.808,1.808,0,0,0,.293-1.03,1.717,1.717,0,0,0-.515-1.257,2.225,2.225,0,0,0-1.632-.518h-2.563Zm0,5.082h2.695a2.767,2.767,0,0,0,1.892-.517,1.647,1.647,0,0,0,.562-1.257,2.015,2.015,0,0,0-.291-1.054,2.125,2.125,0,0,0-.827-.778,2.613,2.613,0,0,0-1.271-.293h-2.76Z" transform="translate(-987.984 -590.635)" fill="#7e7e7e"/>
      <path id="Path_20470" data-name="Path 20470" d="M1084.7,602V590.788h1.358V600.8h5.214V602Z" transform="translate(-1041.78 -590.635)" fill="#7e7e7e"/>
      <path id="Path_20471" data-name="Path 20471" d="M1144.691,602V590.788h6.769v1.2h-5.411v3.79h5.06v1.2h-5.06V600.8h5.5V602Z" transform="translate(-1090.008 -590.635)" fill="#7e7e7e"/>
      <path id="Path_20472" data-name="Path 20472" d="M1245.331,602V590.788h1.358V600.8h5.214V602Z" transform="translate(-1170.919 -590.635)" fill="#7e7e7e"/>
      <path id="Path_20473" data-name="Path 20473" d="M1305.317,602V590.788h1.358V600.8h5.214V602Z" transform="translate(-1219.145 -590.635)" fill="#7e7e7e"/>
      <path id="Path_20474" data-name="Path 20474" d="M1370.3,593.664h-1.358a2.851,2.851,0,0,0-.419-1.03,2.914,2.914,0,0,0-.723-.748,3.139,3.139,0,0,0-.939-.457,3.741,3.741,0,0,0-1.073-.153,3.41,3.41,0,0,0-1.843.515,3.556,3.556,0,0,0-1.309,1.517,6.48,6.48,0,0,0,0,4.918,3.554,3.554,0,0,0,1.309,1.517,3.408,3.408,0,0,0,1.843.515,3.741,3.741,0,0,0,1.073-.153,3.14,3.14,0,0,0,.939-.457,2.849,2.849,0,0,0,1.142-1.777h1.358a4.508,4.508,0,0,1-.559,1.539,4.16,4.16,0,0,1-1.008,1.153,4.383,4.383,0,0,1-1.35.72,5.058,5.058,0,0,1-1.6.247,4.7,4.7,0,0,1-2.552-.7,4.811,4.811,0,0,1-1.758-1.994,7.66,7.66,0,0,1,0-6.134,4.812,4.812,0,0,1,1.758-1.994,4.7,4.7,0,0,1,2.552-.7,5.068,5.068,0,0,1,1.6.246,4.387,4.387,0,0,1,1.35.72,4.174,4.174,0,0,1,1.008,1.15A4.479,4.479,0,0,1,1370.3,593.664Z" transform="translate(-1263.78 -590.006)" fill="#7e7e7e"/>
    </g>
    <path id="Path_20475" data-name="Path 20475" d="M545.755,392.024a26.124,26.124,0,0,0-.694-5.743,26.659,26.659,0,0,0-2.741-7.138l-.5-.857a24.71,24.71,0,0,0-2.905-3.951v.579q0,8.891,0,17.78a19.748,19.748,0,0,1-.913,5.791,19.966,19.966,0,0,1-2.378,5.077,20.571,20.571,0,0,1-14.422,9.222,20.22,20.22,0,0,1-6.455-.1,20.013,20.013,0,0,1-5.544-1.844,20.5,20.5,0,0,1-7.868-6.872,20.556,20.556,0,0,1-2.09-19.2,20,20,0,0,1,3.177-5.362,20.472,20.472,0,0,1,9.094-6.4,20.142,20.142,0,0,1,9.353-.992,18.75,18.75,0,0,1,4.313,1.018c.01.091.022.152.022.212,0,6.536.02,13.073-.035,19.608a6.278,6.278,0,0,1-.658,2.528,6.647,6.647,0,0,1-4.734,3.744,6.913,6.913,0,0,1-7.194-2.965,7.516,7.516,0,0,1-1.122-3.582h-6.78a.64.64,0,0,0-.039.125c0,.091-.005.183,0,.274a13.749,13.749,0,0,0,10.188,12.687,13.544,13.544,0,0,0,11.7-2.254,13.045,13.045,0,0,0,5.482-10.445c.121-7.982.035-15.967.042-23.951a.481.481,0,0,0-.285-.494,27.562,27.562,0,0,0-16.378-3.355A27.061,27.061,0,0,0,500.87,371.3a27.1,27.1,0,0,0-9.439,15.911,26.08,26.08,0,0,0-.36,8.042c.1.835.952,4.817,1.182,5.563a26.121,26.121,0,0,0,3.977,7.8,27.464,27.464,0,0,0,7.946,7.27,27.162,27.162,0,0,0,6.42,2.841,28.126,28.126,0,0,0,5.962,1.051,25.535,25.535,0,0,0,8.723-.86c7.731-3.02,13.108-7.263,12.786-6.723a1.963,1.963,0,0,0-.2.411,19.192,19.192,0,0,1-2.263,4.735,20.558,20.558,0,0,1-6.466,6.335,19.068,19.068,0,0,1-6.5,2.6,22.08,22.08,0,0,1-3.845.445,34.278,34.278,0,0,1-7.748-.8,33.724,33.724,0,0,1-6.562-2.13c-1.1-.489-2.163-1.048-3.3-1.6L497.78,428.1a4.871,4.871,0,0,0,.424.255c1.9.884,3.78,1.841,5.726,2.621a31.711,31.711,0,0,0,4.688,1.453c1.773.407,3.585.664,5.391.908a29.868,29.868,0,0,0,8.652-.081,26.787,26.787,0,0,0,6.328-1.825,27.467,27.467,0,0,0,15.741-17.852,26.47,26.47,0,0,0,1.023-7.067Q545.773,399.268,545.755,392.024Z" transform="translate(-19881.91 -10364.999)" fill="url(#linear-gradient-2)"/>
  </g>
</svg>
