<svg xmlns="http://www.w3.org/2000/svg" width="30.646" height="24.906" viewBox="0 0 30.646 24.906"><defs><style>.a{fill:#fff;}</style></defs><path class="a" d="M9.72,21.082c11.565,0,17.889-9.581,17.889-17.889q0-.408-.018-.813A12.8,12.8,0,0,0,30.727-.876a12.544,12.544,0,0,1-3.611.99,6.311,6.311,0,0,0,2.765-3.478,12.61,12.61,0,0,1-3.992,1.526A6.293,6.293,0,0,0,15.175,3.9,17.852,17.852,0,0,1,2.214-2.673,6.273,6.273,0,0,0,1.363.487a6.282,6.282,0,0,0,2.8,5.233,6.238,6.238,0,0,1-2.848-.786c0,.026,0,.052,0,.08a6.289,6.289,0,0,0,5.045,6.164A6.311,6.311,0,0,1,4.7,11.4a6.249,6.249,0,0,1-1.182-.113,6.294,6.294,0,0,0,5.874,4.367,12.614,12.614,0,0,1-7.809,2.691,12.8,12.8,0,0,1-1.5-.087A17.8,17.8,0,0,0,9.72,21.082" transform="translate(-0.082 3.824)"/></svg>