<svg xmlns="http://www.w3.org/2000/svg" width="29.812" height="20.873" viewBox="0 0 29.812 20.873"><defs><style>.a{fill:#fff;}</style></defs><path class="a" d="M29.2-2.816a3.735,3.735,0,0,0-2.627-2.628c-2.333-.638-11.665-.638-11.665-.638s-9.331,0-11.664.614A3.811,3.811,0,0,0,.615-2.816,39.354,39.354,0,0,0,0,4.355a39.209,39.209,0,0,0,.614,7.17,3.735,3.735,0,0,0,2.628,2.628c2.357.638,11.664.638,11.664.638s9.331,0,11.664-.614A3.735,3.735,0,0,0,29.2,11.55a39.367,39.367,0,0,0,.614-7.17A37.357,37.357,0,0,0,29.2-2.816ZM11.935,8.824V-.115L19.7,4.355Zm0,0" transform="translate(-0.001 6.082)"/></svg>